<svg xmlns="http://www.w3.org/2000/svg" width="300" height="178" viewBox="0 0 300 178" role="img" aria-label="Boucle de défaut en régime TT">
  <circle cx="45" cy="50" r="16" fill="none" stroke="#e8ecf0" stroke-width="2"/>
  <text x="45" y="53" text-anchor="middle" font-size="8" fill="#e8ecf0">~</text>
  <text x="45" y="26" text-anchor="middle" font-size="7.5" fill="#9aa6b3">transfo</text>
  <line x1="45" y1="66" x2="45" y2="120" stroke="#e8ecf0" stroke-width="1.6"/>
  <path d="M38 120 h14 M40 124 h10 M42 128 h6" stroke="#5ab0f0" stroke-width="1.6"/>
  <text x="55" y="130" font-size="7.5" fill="#5ab0f0">terre du neutre (T)</text>
  <line x1="61" y1="44" x2="200" y2="44" stroke="#e8744f" stroke-width="2"/>
  <text x="120" y="38" font-size="7.5" fill="#e8744f">phase</text>
  <rect x="200" y="34" width="40" height="54" rx="3" fill="none" stroke="#9aa6b3" stroke-width="2"/>
  <text x="220" y="58" text-anchor="middle" font-size="8" fill="#9aa6b3">masse</text>
  <line x1="200" y1="50" x2="190" y2="50" stroke="#e85b50" stroke-width="2" stroke-dasharray="3 2"/>
  <text x="158" y="62" font-size="7" fill="#e85b50">défaut</text>
  <line x1="220" y1="88" x2="220" y2="130" stroke="#4cd97b" stroke-width="2"/>
  <text x="226" y="108" font-size="7.5" fill="#4cd97b">PE</text>
  <path d="M213 130 h14 M215 134 h10 M217 138 h6" stroke="#5ab0f0" stroke-width="1.6"/>
  <text x="200" y="152" font-size="7.5" fill="#5ab0f0">terre des masses (T)</text>
  <rect x="95" y="36" width="20" height="16" rx="2" fill="#1c1f24" stroke="#ffd23f" stroke-width="1.6"/>
  <text x="105" y="48" text-anchor="middle" font-size="8" fill="#ffd23f">DDR</text>
  <text x="150" y="172" text-anchor="middle" font-size="8" fill="#9aa6b3" font-family="monospace">Id remonte par la terre → le DDR voit la fuite → coupe</text>
</svg>