<svg xmlns="http://www.w3.org/2000/svg" viewBox="0 0 320 170" font-family="'Segoe UI',system-ui,sans-serif">
<text x="160" y="22" text-anchor="middle" font-size="9.5" fill="#9aa6b3" font-weight="normal">À quoi sert l'électricité ?</text>
<g><path d="M44 80 q6 -8 0 -16 q-6 -8 0 -16" fill="none" stroke="#ff8c2b" stroke-width="2" stroke-linecap="round"/><path d="M52 80 q6 -8 0 -16 q-6 -8 0 -16" fill="none" stroke="#ff8c2b" stroke-width="2" stroke-linecap="round"/><path d="M60 80 q6 -8 0 -16 q-6 -8 0 -16" fill="none" stroke="#ff8c2b" stroke-width="2" stroke-linecap="round"/></g>
<circle cx="124" cy="62" r="12" fill="none" stroke="#ffd23f" stroke-width="2"/><line x1="120" y1="76" x2="128" y2="76" stroke="#ffd23f" stroke-width="2"/><line x1="121" y1="81" x2="127" y2="81" stroke="#ffd23f" stroke-width="2"/>
<circle cx="196" cy="64" r="11" fill="none" stroke="#e8eaed" stroke-width="2"/><circle cx="196" cy="64" r="3.5" fill="none" stroke="#e8eaed" stroke-width="1.6"/><line x1="209.0" y1="64.0" x2="214.0" y2="64.0" stroke="#e8eaed" stroke-width="2" stroke-linecap="round"/><line x1="205.2" y1="73.2" x2="208.7" y2="76.7" stroke="#e8eaed" stroke-width="2" stroke-linecap="round"/><line x1="196.0" y1="77.0" x2="196.0" y2="82.0" stroke="#e8eaed" stroke-width="2" stroke-linecap="round"/><line x1="186.8" y1="73.2" x2="183.3" y2="76.7" stroke="#e8eaed" stroke-width="2" stroke-linecap="round"/><line x1="183.0" y1="64.0" x2="178.0" y2="64.0" stroke="#e8eaed" stroke-width="2" stroke-linecap="round"/><line x1="186.8" y1="54.8" x2="183.3" y2="51.3" stroke="#e8eaed" stroke-width="2" stroke-linecap="round"/><line x1="196.0" y1="51.0" x2="196.0" y2="46.0" stroke="#e8eaed" stroke-width="2" stroke-linecap="round"/><line x1="205.2" y1="54.8" x2="208.7" y2="51.3" stroke="#e8eaed" stroke-width="2" stroke-linecap="round"/>
<circle cx="268" cy="74" r="2.5" fill="#5ab0f0"/><path d="M262.4 68.4 A 8 8 0 0 1 273.6 68.4" fill="none" stroke="#5ab0f0" stroke-width="1.6"/><path d="M257.5 63.5 A 15 15 0 0 1 278.5 63.5" fill="none" stroke="#5ab0f0" stroke-width="1.6"/><path d="M252.6 58.6 A 22 22 0 0 1 283.4 58.6" fill="none" stroke="#5ab0f0" stroke-width="1.6"/>
<text x="52" y="112" text-anchor="middle" font-size="8.5" fill="#e8eaed" font-weight="normal">chauffer</text>
<text x="124" y="112" text-anchor="middle" font-size="8.5" fill="#e8eaed" font-weight="normal">éclairer</text>
<text x="196" y="112" text-anchor="middle" font-size="8.5" fill="#e8eaed" font-weight="normal">force motrice</text>
<text x="268" y="112" text-anchor="middle" font-size="8.5" fill="#e8eaed" font-weight="normal">communiquer</text>
<text x="160" y="150" text-anchor="middle" font-size="8.5" fill="#9aa6b3" font-weight="normal">chaleur · lumière · mouvement · information</text>
</svg>