<svg xmlns="http://www.w3.org/2000/svg" viewBox="0 0 320 190" font-family="'Segoe UI',system-ui,sans-serif">
<text x="160" y="20" text-anchor="middle" font-size="9.5" fill="#9aa6b3" font-weight="normal">Les conducteurs : âme cuivre + gaine de couleur</text>
<line x1="46" y1="74" x2="196" y2="54" stroke="#e85b50" stroke-width="13" stroke-linecap="round"/><line x1="49" y1="71" x2="193" y2="51" stroke="rgba(255,255,255,0.25)" stroke-width="3" stroke-linecap="round"/><line x1="196" y1="54" x2="229.7" y2="49.5" stroke="#c98a3c" stroke-width="6" stroke-linecap="round"/>
<text x="250" y="58" text-anchor="middle" font-size="8.5" fill="#e85b50" font-weight="normal">phase (rouge / marron)</text>
<line x1="46" y1="108" x2="196" y2="88" stroke="#5ab0f0" stroke-width="13" stroke-linecap="round"/><line x1="49" y1="105" x2="193" y2="85" stroke="rgba(255,255,255,0.25)" stroke-width="3" stroke-linecap="round"/><line x1="196" y1="88" x2="229.7" y2="83.5" stroke="#c98a3c" stroke-width="6" stroke-linecap="round"/>
<text x="250" y="92" text-anchor="middle" font-size="8.5" fill="#5ab0f0" font-weight="normal">neutre (bleu clair)</text>
<line x1="46" y1="142" x2="196" y2="122" stroke="#4cd97b" stroke-width="13" stroke-linecap="round"/><line x1="49" y1="139" x2="193" y2="119" stroke="rgba(255,255,255,0.25)" stroke-width="3" stroke-linecap="round"/><line x1="196" y1="122" x2="229.7" y2="117.5" stroke="#c98a3c" stroke-width="6" stroke-linecap="round"/><line x1="64.7" y1="144.6" x2="63.3" y2="134.6" stroke="#ffd23f" stroke-width="3"/><line x1="94.7" y1="140.6" x2="93.3" y2="130.6" stroke="#ffd23f" stroke-width="3"/><line x1="124.7" y1="136.6" x2="123.3" y2="126.6" stroke="#ffd23f" stroke-width="3"/><line x1="154.7" y1="132.6" x2="153.3" y2="122.6" stroke="#ffd23f" stroke-width="3"/>
<text x="250" y="126" text-anchor="middle" font-size="8.5" fill="#4cd97b" font-weight="normal">terre (vert-jaune)</text>
<text x="160" y="174" text-anchor="middle" font-size="8" fill="#9aa6b3" font-weight="normal">Le bout dénudé (cuivre) se raccorde ; la gaine isole et repère</text>
</svg>