<svg xmlns="http://www.w3.org/2000/svg" width="300" height="178" viewBox="0 0 300 178" role="img" aria-label="Schéma d'un circuit électrique simple">
  <rect x="30" y="30" width="240" height="110" fill="none" stroke="#e8ecf0" stroke-width="2"/>
  <line x1="24" y1="70" x2="36" y2="70" stroke="#e8ecf0" stroke-width="2"/>
  <line x1="27" y1="80" x2="33" y2="80" stroke="#e8ecf0" stroke-width="3"/>
  <rect x="18" y="62" width="24" height="26" fill="#1c1f24"/>
  <line x1="30" y1="30" x2="30" y2="62" stroke="#e8ecf0" stroke-width="2"/>
  <line x1="30" y1="88" x2="30" y2="140" stroke="#e8ecf0" stroke-width="2"/>
  <line x1="24" y1="68" x2="36" y2="68" stroke="#e8ecf0" stroke-width="2"/>
  <line x1="27" y1="78" x2="33" y2="78" stroke="#e8ecf0" stroke-width="4"/>
  <text x="8" y="64" font-size="9" fill="#ffd23f">+</text>
  <text x="8" y="92" font-size="9" fill="#5ab0f0">−</text>
  <text x="44" y="80" font-size="8" fill="#9aa6b3">générateur</text>
  <circle cx="105" cy="30" r="3" fill="#e8ecf0"/>
  <line x1="105" y1="30" x2="135" y2="16" stroke="#e8ecf0" stroke-width="2"/>
  <circle cx="140" cy="30" r="3" fill="#e8ecf0"/>
  <text x="122" y="48" font-size="8" fill="#9aa6b3">interrupteur</text>
  <rect x="190" y="24" width="34" height="12" fill="none" stroke="#e8ecf0" stroke-width="1.6"/>
  <line x1="190" y1="30" x2="224" y2="30" stroke="#e8ecf0" stroke-width="1.2"/>
  <text x="207" y="50" text-anchor="middle" font-size="8" fill="#9aa6b3">fusible</text>
  <circle cx="270" cy="85" r="16" fill="none" stroke="#ffd23f" stroke-width="2"/>
  <line x1="259" y1="74" x2="281" y2="96" stroke="#ffd23f" stroke-width="2"/>
  <line x1="281" y1="74" x2="259" y2="96" stroke="#ffd23f" stroke-width="2"/>
  <text x="270" y="118" text-anchor="middle" font-size="8" fill="#9aa6b3">lampe</text>
  <path d="M80 140 l10 -5 v10 z" fill="#5ab0f0"/>
  <text x="98" y="158" font-size="8" fill="#5ab0f0">sens conventionnel du courant : + → −</text>
  
</svg>